PathFileType	4	(X/Y/Z)	H:\MAC\Cortex8\Teaching\Biomec1_N_2\Trimmed_walk2.trc
DataRate	CameraRate	NumFrames	NumMarkers	Units	OrigDataRate	OrigDataStartFrame	OrigNumFrames
150.00	150.00	       10	28	mm	150.00	47	       184
Frame#	Time	R.ASIS			L.ASIS			R.PSIS			L.PSIS			L.Iliac.Crest			R.Iliac.Crest			R.GTR			R.Knee			R.HF			R.TT			R.Ankle			R.Heel			R.MT1			R.MT5			L.GTR			L.Knee			L.HF			L.TT			L.Ankle			L.Heel			L.MT1			L.MT5			R.Knee.Medial			R.Ankle.Medial			R.MT2			L.Knee.Medial			L.Ankle.Medial			L.MT2			V_Mid_ASIS			V_Mid_PSIS			V_Pelvis_Origin			V_R.Hip_JC			V_R.Knee_JC_Static			V_R.TT			V_R.Ankle_JC_Static			V_L.Hip_JC			V_Mid_Hip			V_R.MT2_Static			V_R.Knee.Medial			V_R.Ankle.Medial			V_R.TT			V_L.Knee_JC_Static			V_L.TT			V_L.Ankle_JC_Static			V_L.MT2_Static			V_R.Knee_JC			V_R.Ankle_JC			V_L.Knee_JC			V_L.Ankle_JC			V_R.TT_KJC_Static			V_L.TT_KJC_Static			V_R.TT_KJC			V_L.TT_KJC			V_R.MT2			V_L.MT2			
		X1	Y1	Z1	X2	Y2	Z2	X3	Y3	Z3	X4	Y4	Z4	X5	Y5	Z5	X6	Y6	Z6	X7	Y7	Z7	X8	Y8	Z8	X9	Y9	Z9	X10	Y10	Z10	X11	Y11	Z11	X12	Y12	Z12	X13	Y13	Z13	X14	Y14	Z14	X15	Y15	Z15	X16	Y16	Z16	X17	Y17	Z17	X18	Y18	Z18	X19	Y19	Z19	X20	Y20	Z20	X21	Y21	Z21	X22	Y22	Z22	X23	Y23	Z23	X24	Y24	Z24	X25	Y25	Z25	X26	Y26	Z26	X27	Y27	Z27	X28	Y28	Z28	

47	0.307	825.19000	1002.24603	-355.34949	821.93164	993.49194	-605.79803	618.05560	995.85010	-415.95676	611.66412	996.28088	-493.26456	728.53259	1053.69006	-642.17114	747.74365	1045.43542	-309.05978	779.27661	926.67682	-270.49771	920.78210	535.48059	-285.12308	933.95496	474.10016	-282.76270	997.63989	464.10989	-330.41681	851.83765	124.29742	-327.45407	794.30542	100.36291	-387.39478	1015.66138	86.63025	-354.24762	973.03503	80.17316	-275.12610	730.67255	894.31140	-675.49841	677.96283	502.08963	-623.32550	682.53253	436.63895	-615.90125	738.96405	425.61496	-559.82129	612.88129	83.87486	-548.44916	546.83014	54.55259	-489.68173	770.84326	52.58915	-484.58072	748.11780	47.40300	-572.70758	951.69391	523.04608	-415.46661	901.71912	136.45952	-406.00116	1003.86841	95.48304	-319.11783	686.74994	492.93845	-481.42206	649.32507	103.17262	-460.06342	770.25452	58.46744	-521.24268																																																																																		
48	0.313	832.05249	1001.20007	-355.49973	828.35144	992.43988	-606.13043	624.97888	994.64484	-415.39590	618.40778	995.40741	-492.93896	734.68652	1052.78796	-642.21930	754.87860	1044.37891	-309.14066	786.29120	925.45172	-270.50571	927.94220	533.82697	-286.37347	942.45538	472.71008	-284.00183	1006.72705	464.29150	-331.30261	874.18250	119.65332	-326.53394	817.88165	93.03992	-386.40277	1039.46509	88.05235	-353.41934	997.08295	80.25446	-274.13077	736.36237	893.58887	-675.70142	680.31030	501.91824	-623.60150	684.50653	436.40979	-616.10687	740.90173	425.02881	-560.12347	613.22168	83.98551	-547.92065	546.92725	54.76144	-489.63611	770.73132	52.56333	-484.65244	748.18585	47.35695	-572.76434	959.65417	521.87115	-417.14392	923.80414	133.22401	-405.22302	1027.37012	96.50176	-318.05121	689.35706	492.67618	-481.66046	649.30634	103.45940	-459.47977	770.36621	58.17624	-521.40387																																																																																		
49	0.320	839.21460	999.99884	-355.56454	834.89001	991.36517	-606.30426	631.79083	993.60455	-415.19742	625.12555	994.54742	-492.57697	741.00433	1051.87378	-642.19519	761.88068	1043.21094	-309.12024	793.15424	924.08905	-270.43808	934.83942	532.00519	-287.60492	950.89502	471.23627	-285.33258	1015.66022	464.29080	-332.17804	896.40912	115.46532	-325.65594	841.40424	86.30427	-385.46692	1063.06982	89.94667	-352.30438	1020.60120	80.85499	-273.13574	742.15131	892.85010	-675.93127	682.75085	501.69485	-623.82623	686.55707	436.17676	-616.27661	742.90039	424.41797	-560.36072	613.44458	84.16640	-547.60193	547.05267	54.93025	-489.52679	770.82562	52.45679	-484.70532	748.24841	47.37175	-572.86670	967.74707	520.58600	-418.80673	945.71692	130.44591	-404.39276	1050.53650	98.02168	-316.92105	691.93622	492.38974	-481.86520	649.66919	103.21284	-459.45670	770.52100	57.99111	-521.49158																																																																																		
50	0.327	846.12506	998.86835	-355.66815	841.48236	990.25592	-606.47540	638.79095	992.46948	-414.83188	631.96790	993.68658	-492.24960	747.35553	1050.94446	-642.14661	768.99231	1041.88037	-309.10776	800.02295	922.56018	-270.38904	941.67651	530.02728	-288.86780	958.99799	469.63513	-286.65118	1024.27661	464.29697	-333.00836	918.58209	111.69723	-324.82291	864.88477	80.07648	-384.57214	1086.11304	92.41075	-351.45663	1044.66260	81.87917	-271.85443	748.03302	892.07587	-676.14252	685.28217	501.48798	-624.09021	688.63690	435.93219	-616.44946	744.95148	423.81372	-560.57458	613.58392	84.34521	-547.45300	547.17242	55.10883	-489.42047	770.93457	52.34422	-484.77249	748.35431	47.22485	-572.86127	975.65564	519.23370	-420.52264	967.51825	128.17838	-403.57913	1073.60669	100.53200	-315.56705	694.45966	492.08408	-481.98050	650.34906	102.72760	-459.54077	770.62311	57.80384	-521.55768																																																																																		
51	0.333	853.37982	997.58209	-355.63174	848.14185	989.16644	-606.62482	645.78510	991.56512	-414.49918	638.71674	992.99194	-492.05872	753.87927	1050.02905	-642.05615	776.08893	1040.53857	-308.98691	806.81659	920.88336	-270.33582	948.06152	528.02905	-290.06024	966.95483	468.04306	-287.80759	1032.72620	464.18143	-333.89172	941.39978	107.65453	-324.39001	888.48737	74.28127	-383.77518	1109.04565	95.09464	-349.78430	1067.79138	83.41996	-270.65591	754.11255	891.25085	-676.38599	687.90179	501.26840	-624.29901	690.83185	435.69559	-616.59753	747.05170	423.19925	-560.73962	613.72046	84.52317	-547.30103	547.26709	55.33947	-489.31085	771.02985	52.24543	-484.82800	748.42920	47.18358	-572.92114	983.60889	517.92310	-422.28256	989.13940	126.27721	-402.75974	1095.74365	102.64384	-314.52048	696.98560	491.81079	-482.07074	650.71021	102.69587	-459.51675	770.77167	57.55660	-521.54779																																																																																		
52	0.340	860.63354	996.25623	-355.57004	854.84515	987.97986	-606.76190	652.93823	990.60388	-414.27060	645.79791	992.02533	-491.56845	760.54401	1049.03540	-641.92358	783.35022	1039.05090	-308.85983	813.68262	919.08929	-270.29318	954.27344	525.91241	-291.16849	975.19379	466.29929	-288.93777	1040.95520	463.98062	-334.78192	963.43097	104.65921	-323.59979	911.85663	69.10551	-382.89807	1131.26416	98.57638	-348.83417	1090.25098	84.98336	-269.43735	760.31042	890.36877	-676.65747	690.55774	501.03943	-624.45575	693.09216	435.42706	-616.70276	749.22180	422.52664	-560.86060	613.87787	84.71223	-547.13434	547.41162	55.56027	-489.18207	771.08801	52.19559	-484.84576	748.50885	47.13984	-572.96838	991.32184	516.39740	-423.84439	1010.39392	124.92941	-401.70206	1117.85815	105.77338	-313.01324	699.33655	491.57156	-481.92102	650.95844	102.84768	-459.34238	770.85474	57.49099	-521.52698																																																																																		
53	0.347	868.01996	994.86096	-355.45331	861.69916	986.73987	-606.78711	660.21112	989.52142	-413.91428	652.87354	991.18689	-491.24475	767.34540	1048.02600	-641.79932	790.50610	1037.52954	-308.72107	820.58759	917.21399	-270.25027	960.26361	523.59998	-292.28915	983.35126	464.33154	-289.94046	1048.96692	463.73422	-335.79807	985.22491	102.15376	-322.78101	935.25085	64.39083	-382.11807	1153.30164	102.34488	-347.60553	1112.61279	87.67201	-268.36795	766.42474	889.48846	-676.95972	693.32922	500.81793	-624.62933	695.44257	435.18219	-616.81525	751.48218	421.86780	-560.91180	614.04993	84.90056	-546.98676	547.55243	55.82827	-489.05511	771.18768	52.11215	-484.90750	748.57953	47.08467	-573.02374	998.74066	514.75452	-425.24277	1031.50891	123.91617	-400.75223	1139.49927	108.94027	-311.90976	702.04388	491.29742	-482.02884	651.30365	102.96590	-459.15054	770.94031	57.30294	-521.59418																																																																																		
54	0.353	875.53772	993.43842	-355.34671	868.60797	985.48364	-606.82562	667.42377	988.76636	-413.88205	660.13098	990.43182	-490.88135	774.21661	1046.96094	-641.67511	797.74384	1035.99341	-308.55380	827.54205	915.25458	-270.22876	966.90137	521.12512	-294.00974	991.26550	462.41638	-291.07791	1056.78992	463.46414	-336.85550	1006.71655	100.13376	-322.00919	958.39014	60.32726	-381.28375	1174.85120	106.54980	-346.27789	1134.67212	90.55555	-267.17410	772.70306	888.54736	-677.26331	696.19019	500.57089	-624.73431	697.83514	434.93347	-616.91046	753.84399	421.19290	-560.95172	614.20538	85.12202	-546.83459	547.72168	56.13157	-488.95657	771.28534	52.02243	-484.95731	748.64545	47.03396	-573.07135	1005.97565	512.84833	-426.55984	1052.44177	123.30032	-399.90167	1160.59070	112.60114	-310.80484	704.92609	491.01346	-482.05811	651.67780	103.02232	-459.10516	771.00854	57.19711	-521.66473																																																																																		
55	0.360	883.07587	991.90839	-355.16220	875.50189	984.17291	-606.84705	675.06653	987.81482	-413.23718	667.37195	989.65527	-490.53604	781.28101	1045.83752	-641.53094	805.26447	1034.41577	-308.25497	834.50391	913.27380	-270.27628	972.72949	518.53387	-295.33868	999.07764	460.48862	-292.30353	1064.49414	463.10516	-337.96222	1028.09937	98.54174	-321.23923	981.34253	56.82756	-380.45120	1195.95447	111.06477	-344.94220	1156.01794	93.54935	-265.87375	778.93658	887.57861	-677.49475	699.08008	500.35153	-624.84149	700.36316	434.69296	-617.00885	756.32458	420.51590	-561.01044	614.42841	85.41386	-546.65002	547.87384	56.49297	-488.86743	771.53607	51.74086	-484.91348	748.84125	46.95570	-573.10760	1013.02997	510.77805	-427.95267	1073.04224	123.14095	-399.02930	1181.34412	116.56650	-309.61090	707.97174	490.69434	-482.05576	651.87897	102.81720	-459.06619	771.20575	56.96616	-521.72083																																																																																		
56	0.367	890.75146	990.33820	-355.00851	882.55432	982.83929	-606.78699	682.57501	987.06354	-413.00131	674.65991	988.88837	-490.16879	788.42853	1044.64954	-641.38995	812.75787	1032.93201	-308.01974	841.65424	911.25793	-270.33914	978.53235	515.68622	-296.79913	1006.82947	458.49612	-293.49564	1071.98425	462.63477	-339.13281	1049.07129	97.47240	-320.46237	1003.88232	53.89155	-379.52643	1216.31482	116.06693	-343.71417	1177.09839	97.10436	-264.82782	785.21179	886.61853	-677.71118	702.12335	500.13550	-624.91144	702.94843	434.47150	-617.06909	758.89844	419.85699	-561.09424	614.62439	85.68127	-546.50183	548.05884	56.80693	-488.73355	771.66980	51.66658	-484.96542	748.91559	46.90190	-573.15491	1019.74268	508.42780	-429.24826	1093.24182	123.41467	-398.21304	1201.57922	121.02985	-308.64886	711.35138	490.44608	-482.06125	652.35443	102.79628	-459.23911	771.30634	56.71741	-521.86774																																																																																		
